<?xml version="1.0" encoding="UTF-8" standalone="no"?>
<svg width="28px" height="62px" viewBox="0 0 28 62" version="1.1" xmlns="http://www.w3.org/2000/svg" xmlns:xlink="http://www.w3.org/1999/xlink">
    <!-- Generator: Sketch 3.7.2 (28276) - http://www.bohemiancoding.com/sketch -->
    <title>github</title>
    <desc>Created with Sketch.</desc>
    <defs></defs>
    <g id="Page-1" stroke="none" stroke-width="1" fill="none" fill-rule="evenodd">
        <g id="github">
            <g id="hover" transform="translate(0.000000, 34.000000)" fill="#1CDFFF">
                <path d="M14,0 C6.24804688,0 0,6.2890625 0,14 C0,20.5078125 4.47070312,26.0175781 10.5,27.5761719 L10.5,24.7597656 C6.09765625,23.4335938 4.921875,20.0976562 4.8671875,19.9609375 C4.82617188,19.796875 4.89453125,19.6054688 5.05859375,19.5097656 C5.18164062,19.4140625 5.37304688,19.4414062 5.50976562,19.578125 C5.53710938,19.578125 7.90234375,21.9023438 10.828125,21.8476562 C11.046875,21.2597656 11.4023438,20.671875 11.9628906,20.2480469 C8.203125,19.6738281 5.25,17.4726562 5.25,14 C5.25,12.578125 5.83789062,11.1425781 6.87695312,9.98046875 C6.54882812,8.65429688 6.41210938,7.02734375 7,5.83789062 C8.49023438,5.9609375 9.953125,6.71289062 11.046875,7.3828125 C11.9628906,7.1640625 12.9335938,7 14,7 C15.0664062,7 16.0371094,7.1640625 16.953125,7.3828125 C18.046875,6.71289062 19.5097656,5.9609375 21,5.83789062 C21.5878906,7.02734375 21.4238281,8.65429688 21.1230469,9.98046875 C22.1621094,11.1425781 22.75,12.578125 22.75,14 C22.75,17.4726562 19.796875,19.6738281 16.0371094,20.2480469 C17.2128906,21.1640625 17.5,22.7773438 17.5,23.9121094 L17.5,27.5761719 C23.5292969,26.0175781 28,20.5078125 28,14 C28,6.2890625 21.7109375,0 14,0 L14,0 L14,0 Z" id="github"></path>
            </g>
            <g id="default" fill="#2C2C2C">
                <path d="M14,0 C6.24804688,0 0,6.2890625 0,14 C0,20.5078125 4.47070312,26.0175781 10.5,27.5761719 L10.5,24.7597656 C6.09765625,23.4335938 4.921875,20.0976562 4.8671875,19.9609375 C4.82617188,19.796875 4.89453125,19.6054688 5.05859375,19.5097656 C5.18164062,19.4140625 5.37304688,19.4414062 5.50976562,19.578125 C5.53710938,19.578125 7.90234375,21.9023438 10.828125,21.8476562 C11.046875,21.2597656 11.4023438,20.671875 11.9628906,20.2480469 C8.203125,19.6738281 5.25,17.4726562 5.25,14 C5.25,12.578125 5.83789062,11.1425781 6.87695312,9.98046875 C6.54882812,8.65429688 6.41210938,7.02734375 7,5.83789062 C8.49023438,5.9609375 9.953125,6.71289062 11.046875,7.3828125 C11.9628906,7.1640625 12.9335938,7 14,7 C15.0664062,7 16.0371094,7.1640625 16.953125,7.3828125 C18.046875,6.71289062 19.5097656,5.9609375 21,5.83789062 C21.5878906,7.02734375 21.4238281,8.65429688 21.1230469,9.98046875 C22.1621094,11.1425781 22.75,12.578125 22.75,14 C22.75,17.4726562 19.796875,19.6738281 16.0371094,20.2480469 C17.2128906,21.1640625 17.5,22.7773438 17.5,23.9121094 L17.5,27.5761719 C23.5292969,26.0175781 28,20.5078125 28,14 C28,6.2890625 21.7109375,0 14,0 L14,0 L14,0 Z" id="github"></path>
            </g>
        </g>
    </g>
</svg>
