<?xml version="1.0" encoding="UTF-8" standalone="no"?>
<svg width="28px" height="62px" viewBox="0 0 28 62" version="1.1" xmlns="http://www.w3.org/2000/svg" xmlns:xlink="http://www.w3.org/1999/xlink">
    <!-- Generator: Sketch 3.7.2 (28276) - http://www.bohemiancoding.com/sketch -->
    <title>twitter</title>
    <desc>Created with Sketch.</desc>
    <defs></defs>
    <g id="Page-1" stroke="none" stroke-width="1" fill="none" fill-rule="evenodd">
        <g id="twitter">
            <g id="hover" transform="translate(0.000000, 34.000000)" fill="#1CDFFF">
                <path d="M14,0 C6.24804688,0 0,6.24804688 0,14 C0,21.7519531 6.24804688,28 14,28 C21.7519531,28 28,21.7519531 28,14 C28,6.24804688 21.7519531,0 14,0 L14,0 L14,0 Z M22.5175781,10.9238281 L22.5175781,11.4433594 C22.5175781,16.6933594 18.5390625,22.75 11.2109375,22.75 C8.98242188,22.75 6.87695312,22.1347656 5.12695312,21 C5.4140625,21.0273438 5.7421875,21.0683594 6.05664062,21.0683594 C7.94335938,21.0683594 9.625,20.3164062 10.9921875,19.25 C9.26953125,19.2226562 7.77929688,18.1425781 7.28710938,16.5566406 C7.51953125,16.5976562 7.77929688,16.625 8.0390625,16.625 C8.39453125,16.625 8.75,16.5976562 9.078125,16.5019531 C7.25976562,16.1054688 5.89257812,14.5195312 5.89257812,12.578125 L5.89257812,12.5371094 C6.41210938,12.8378906 7.02734375,13.0292969 7.68359375,13.0292969 C6.6171875,12.3183594 5.93359375,11.1152344 5.93359375,9.72070312 C5.93359375,9.00976562 6.125,8.32617188 6.453125,7.7109375 C8.421875,10.1445312 11.375,11.7304688 14.6835938,11.8945312 C14.6152344,11.6074219 14.5878906,11.2792969 14.5878906,10.9921875 C14.5878906,8.77734375 16.3378906,7 18.5390625,7 C19.6738281,7 20.7128906,7.4921875 21.4238281,8.2578125 C22.3261719,8.06640625 23.1328125,7.75195312 23.9121094,7.28710938 C23.625,8.23046875 23.0371094,9.00976562 22.203125,9.50195312 C23.0097656,9.39257812 23.7890625,9.17382812 24.5,8.87304688 C23.953125,9.65234375 23.296875,10.3769531 22.5175781,10.9238281 L22.5175781,10.9238281 L22.5175781,10.9238281 Z" id="twitter"></path>
            </g>
            <g id="default" fill="#2C2C2C">
                <path d="M14,0 C6.24804688,0 0,6.24804688 0,14 C0,21.7519531 6.24804688,28 14,28 C21.7519531,28 28,21.7519531 28,14 C28,6.24804688 21.7519531,0 14,0 L14,0 L14,0 Z M22.5175781,10.9238281 L22.5175781,11.4433594 C22.5175781,16.6933594 18.5390625,22.75 11.2109375,22.75 C8.98242188,22.75 6.87695312,22.1347656 5.12695312,21 C5.4140625,21.0273438 5.7421875,21.0683594 6.05664062,21.0683594 C7.94335938,21.0683594 9.625,20.3164062 10.9921875,19.25 C9.26953125,19.2226562 7.77929688,18.1425781 7.28710938,16.5566406 C7.51953125,16.5976562 7.77929688,16.625 8.0390625,16.625 C8.39453125,16.625 8.75,16.5976562 9.078125,16.5019531 C7.25976562,16.1054688 5.89257812,14.5195312 5.89257812,12.578125 L5.89257812,12.5371094 C6.41210938,12.8378906 7.02734375,13.0292969 7.68359375,13.0292969 C6.6171875,12.3183594 5.93359375,11.1152344 5.93359375,9.72070312 C5.93359375,9.00976562 6.125,8.32617188 6.453125,7.7109375 C8.421875,10.1445312 11.375,11.7304688 14.6835938,11.8945312 C14.6152344,11.6074219 14.5878906,11.2792969 14.5878906,10.9921875 C14.5878906,8.77734375 16.3378906,7 18.5390625,7 C19.6738281,7 20.7128906,7.4921875 21.4238281,8.2578125 C22.3261719,8.06640625 23.1328125,7.75195312 23.9121094,7.28710938 C23.625,8.23046875 23.0371094,9.00976562 22.203125,9.50195312 C23.0097656,9.39257812 23.7890625,9.17382812 24.5,8.87304688 C23.953125,9.65234375 23.296875,10.3769531 22.5175781,10.9238281 L22.5175781,10.9238281 L22.5175781,10.9238281 Z" id="twitter"></path>
            </g>
        </g>
    </g>
</svg>
